<svg xmlns="http://www.w3.org/2000/svg" viewBox="0 0 700 560" width="700" height="560" role="img" aria-label="Future vision radar and price target">
  <defs>
    <linearGradient id="panel2" x1="0" y1="0" x2="1" y2="1">
      <stop offset="0%" stop-color="#ffffff"/><stop offset="100%" stop-color="#eef3f0"/>
    </linearGradient>
    <radialGradient id="glow2" cx="38%" cy="42%" r="58%">
      <stop offset="0%" stop-color="#1556ee" stop-opacity="0.13"/><stop offset="100%" stop-color="#1556ee" stop-opacity="0"/>
    </radialGradient>
    <radialGradient id="sweep" cx="0%" cy="0%" r="100%">
      <stop offset="0%" stop-color="#1556ee" stop-opacity="0.28"/><stop offset="100%" stop-color="#1556ee" stop-opacity="0"/>
    </radialGradient>
  </defs>
  <ellipse cx="270" cy="240" rx="300" ry="270" fill="url(#glow2)"/>
  <g transform="translate(250 300)">
    <circle r="60" fill="none" stroke="#1556ee" stroke-opacity="0.4" stroke-width="1.5"/>
    <circle r="120" fill="none" stroke="#1556ee" stroke-opacity="0.28" stroke-width="1.5"/>
    <circle r="180" fill="none" stroke="#1556ee" stroke-opacity="0.18" stroke-width="1.5"/>
    <line x1="-200" y1="0" x2="200" y2="0" stroke="#0d1b2a" stroke-opacity="0.1" stroke-width="1.5"/>
    <line x1="0" y1="-200" x2="0" y2="200" stroke="#0d1b2a" stroke-opacity="0.1" stroke-width="1.5"/>
    <path d="M0,0 L170,-90 A192,192 0 0,1 192,0 Z" fill="url(#sweep)"/>
    <circle cx="95" cy="-40" r="5" fill="#1556ee"/>
    <circle cx="-70" cy="60" r="4" fill="#1556ee" opacity="0.6"/>
    <circle cx="40" cy="120" r="4" fill="#1556ee" opacity="0.6"/>
    <circle r="7" fill="#1556ee"/>
  </g>
  <g transform="translate(360 120)">
    <polyline points="0,160 50,140 100,150 150,100 200,110 250,50 300,30"
      fill="none" stroke="#1556ee" stroke-width="3.5" stroke-linecap="round" stroke-linejoin="round"/>
    <circle cx="300" cy="30" r="16" fill="#ffffff" stroke="#1556ee" stroke-width="2.5"/>
    <circle cx="300" cy="30" r="8" fill="none" stroke="#1556ee" stroke-width="2.5"/>
    <circle cx="300" cy="30" r="3" fill="#1556ee"/>
    <circle cx="150" cy="100" r="4" fill="#0d1b2a" opacity="0.4"/>
    <circle cx="250" cy="50" r="4" fill="#0d1b2a" opacity="0.4"/>
  </g>
</svg>
