<svg xmlns="http://www.w3.org/2000/svg" viewBox="0 0 700 560" width="700" height="560" role="img" aria-label="Connected community network">
  <defs>
    <linearGradient id="panel3" x1="0" y1="0" x2="1" y2="1">
      <stop offset="0%" stop-color="#ffffff"/><stop offset="100%" stop-color="#eef3f0"/>
    </linearGradient>
    <radialGradient id="glow3" cx="50%" cy="50%" r="55%">
      <stop offset="0%" stop-color="#1556ee" stop-opacity="0.13"/><stop offset="100%" stop-color="#1556ee" stop-opacity="0"/>
    </radialGradient>
    <filter id="soft3" x="-40%" y="-40%" width="180%" height="180%">
      <feDropShadow dx="0" dy="8" stdDeviation="12" flood-color="#0d1b2a" flood-opacity="0.12"/>
    </filter>
  </defs>
  <ellipse cx="360" cy="285" rx="310" ry="270" fill="url(#glow3)"/>
  <g stroke="#1556ee" stroke-opacity="0.4" stroke-width="2">
    <line x1="350" y1="280" x2="170" y2="150"/>
    <line x1="350" y1="280" x2="540" y2="160"/>
    <line x1="350" y1="280" x2="160" y2="400"/>
    <line x1="350" y1="280" x2="560" y2="410"/>
    <line x1="350" y1="280" x2="350" y2="110"/>
    <line x1="350" y1="280" x2="380" y2="460"/>
    <line x1="170" y1="150" x2="350" y2="110"/>
    <line x1="540" y1="160" x2="350" y2="110"/>
    <line x1="160" y1="400" x2="380" y2="460"/>
    <line x1="560" y1="410" x2="380" y2="460"/>
  </g>
  <g>
    <g transform="translate(350 280)">
      <circle r="46" fill="#1556ee" filter="url(#soft3)"/>
      <circle cy="-13" r="14" fill="#ffffff"/>
      <path d="M-21,25 A23,23 0 0,1 21,25 Z" fill="#ffffff"/>
    </g>
    <g transform="translate(170 150)"><circle r="30" fill="#ffffff" stroke="#1556ee" stroke-opacity="0.55" stroke-width="1.5" filter="url(#soft3)"/><circle cy="-8" r="9" fill="#1556ee"/><path d="M-14,16 A15,15 0 0,1 14,16 Z" fill="#1556ee"/></g>
    <g transform="translate(540 160)"><circle r="30" fill="#ffffff" stroke="#1556ee" stroke-opacity="0.55" stroke-width="1.5" filter="url(#soft3)"/><circle cy="-8" r="9" fill="#1556ee"/><path d="M-14,16 A15,15 0 0,1 14,16 Z" fill="#1556ee"/></g>
    <g transform="translate(160 400)"><circle r="30" fill="#ffffff" stroke="#1556ee" stroke-opacity="0.55" stroke-width="1.5" filter="url(#soft3)"/><circle cy="-8" r="9" fill="#1556ee"/><path d="M-14,16 A15,15 0 0,1 14,16 Z" fill="#1556ee"/></g>
    <g transform="translate(560 410)"><circle r="30" fill="#ffffff" stroke="#1556ee" stroke-opacity="0.55" stroke-width="1.5" filter="url(#soft3)"/><circle cy="-8" r="9" fill="#1556ee"/><path d="M-14,16 A15,15 0 0,1 14,16 Z" fill="#1556ee"/></g>
    <g transform="translate(350 110)"><circle r="26" fill="#ffffff" stroke="#1556ee" stroke-opacity="0.55" stroke-width="1.5" filter="url(#soft3)"/><circle cy="-7" r="8" fill="#1556ee"/><path d="M-12,14 A13,13 0 0,1 12,14 Z" fill="#1556ee"/></g>
    <g transform="translate(380 460)"><circle r="26" fill="#ffffff" stroke="#1556ee" stroke-opacity="0.55" stroke-width="1.5" filter="url(#soft3)"/><circle cy="-7" r="8" fill="#1556ee"/><path d="M-12,14 A13,13 0 0,1 12,14 Z" fill="#1556ee"/></g>
  </g>
</svg>
